<mxfile host="app.diagrams.net" modified="2023-12-04T03:10:48.023Z" agent="Mozilla/5.0 (Windows NT 10.0; Win64; x64) AppleWebKit/537.36 (KHTML, like Gecko) Chrome/119.0.0.0 Safari/537.36 Edg/119.0.0.0" version="22.1.5" etag="4XLEw9ucIGWC25l6aCnB" type="github">
  <diagram name="第 1 页" id="w77eF04bIjEw0tEcX_uJ">
    <mxGraphModel>
      <root>
        <mxCell id="0" />
        <mxCell id="1" parent="0" />
      </root>
    </mxGraphModel>
  </diagram>
</mxfile>
